<?xml version="1.0" encoding="iso-8859-1"?>
<!-- Generator: Adobe Illustrator 16.0.0, SVG Export Plug-In . SVG Version: 6.00 Build 0)  -->
<!DOCTYPE svg PUBLIC "-//W3C//DTD SVG 1.1//EN" "http://www.w3.org/Graphics/SVG/1.1/DTD/svg11.dtd">
<svg version="1.1" id="Capa_1" xmlns="http://www.w3.org/2000/svg" xmlns:xlink="http://www.w3.org/1999/xlink" x="0px" y="0px"
	 width="314.096px" height="314.096px" viewBox="0 0 314.096 314.096" style="enable-background:new 0 0 314.096 314.096;"
	 xml:space="preserve">
<g>
	<g>
		<path d="M252.667,298.455h61.43v-58.013v-9.951v-48.052v-9.956V122.57v-8.1V30.206h-22.591v4.05v4.05v42.135H227.38V38.306v-4.05
			v-4.05h-38.476v4.05v4.05v42.135h-64.127V38.306v-4.05v-4.05H84.148v4.05v4.05v42.135H20.023V38.306v-4.05v-4.05H0.412v84.259H0
			v58.014v9.951v48.057v9.951v58.018h61.43h6.529h54.902h6.528h55.313h6.117h55.312H252.667z M69.53,122.57h51.759v49.913H69.53
			V122.57z M131.372,122.57h51.764v49.913h-51.764V122.57z M192.807,122.57h51.759v49.913h-51.759V122.57z M69.53,230.491v-48.052
			h51.759v48.052H69.53z M131.372,230.491v-48.052h51.764v48.052H131.372z M192.807,182.439h51.759v48.052h-51.759V182.439z
			 M305.997,290.355h-51.764v-49.913h51.764V290.355z M305.997,230.491h-51.764v-48.052h51.764V230.491z M305.997,172.483h-51.764
			V122.57h51.764V172.483z M8.1,122.57h51.764v49.913H8.1V122.57z M8.1,182.439h51.764v48.052H8.1V182.439z M59.859,290.355H8.1
			v-49.913h51.764v49.913H59.859z M121.289,290.355H69.53v-49.913h51.759V290.355z M182.725,290.355H130.96v-49.913h51.765V290.355z
			 M244.566,290.355h-51.759v-49.913h51.759V290.355z"/>
		<polygon points="76.048,34.262 76.048,30.206 76.048,15.641 28.124,15.641 28.124,30.206 28.124,34.262 28.124,38.306 
			28.124,72.341 76.048,72.341 76.048,38.306 		"/>
		<polygon points="180.805,34.262 180.805,30.206 180.805,15.641 132.877,15.641 132.877,30.206 132.877,34.262 132.877,38.306 
			132.877,72.341 180.805,72.341 180.805,38.306 		"/>
		<polygon points="283.405,34.262 283.405,30.206 283.405,15.641 235.48,15.641 235.48,30.206 235.48,34.262 235.48,38.306 
			235.48,72.341 283.405,72.341 283.405,38.306 		"/>
	</g>
</g>
<g>
</g>
<g>
</g>
<g>
</g>
<g>
</g>
<g>
</g>
<g>
</g>
<g>
</g>
<g>
</g>
<g>
</g>
<g>
</g>
<g>
</g>
<g>
</g>
<g>
</g>
<g>
</g>
<g>
</g>
</svg>
